<svg width="600" height="91" viewBox="0 0 600 91" fill="none" xmlns="http://www.w3.org/2000/svg">
<rect x="0.5" y="1.00391" width="599" height="89" rx="3.5" fill="white"/>
<rect x="0.5" y="1.00391" width="599" height="89" rx="3.5" stroke="#747775"/>
<path fill-rule="evenodd" clip-rule="evenodd" d="M77.44 45.8226C77.44 44.8299 77.3509 43.8753 77.1855 42.959H64V48.3744H71.5345C71.21 50.1244 70.2236 51.6072 68.7409 52.5999V56.1126H73.2655C75.9127 53.6753 77.44 50.0863 77.44 45.8226Z" fill="#4285F4"/>
<path fill-rule="evenodd" clip-rule="evenodd" d="M64.0002 59.5041C67.7802 59.5041 70.9493 58.2504 73.2656 56.1122L68.7411 52.5995C67.4874 53.4395 65.8838 53.9359 64.0002 53.9359C60.3538 53.9359 57.2674 51.4732 56.1665 48.1641H51.4893V51.7913C53.7929 56.3668 58.5274 59.5041 64.0002 59.5041Z" fill="#34A853"/>
<path fill-rule="evenodd" clip-rule="evenodd" d="M56.1664 48.1641C55.8864 47.3241 55.7273 46.4268 55.7273 45.5041C55.7273 44.5813 55.8864 43.6841 56.1664 42.8441V39.2168H51.4891C50.5409 41.1068 50 43.245 50 45.5041C50 47.7632 50.5409 49.9013 51.4891 51.7913L56.1664 48.1641Z" fill="#FBBC05"/>
<path fill-rule="evenodd" clip-rule="evenodd" d="M64.0002 37.0721C66.0556 37.0721 67.9011 37.7785 69.352 39.1657L73.3674 35.1503C70.9429 32.8912 67.7738 31.5039 64.0002 31.5039C58.5274 31.5039 53.7929 34.6412 51.4893 39.2166L56.1665 42.8439C57.2674 39.5348 60.3538 37.0721 64.0002 37.0721Z" fill="#EA4335"/>
<path d="M121.389 50.0107C121.389 49.5713 121.32 49.1807 121.184 48.8389C121.057 48.4971 120.827 48.1846 120.495 47.9014C120.163 47.6182 119.694 47.3447 119.089 47.0811C118.493 46.8076 117.731 46.5293 116.804 46.2461C115.788 45.9336 114.851 45.5869 113.991 45.2061C113.142 44.8154 112.399 44.3662 111.765 43.8584C111.13 43.3408 110.637 42.75 110.285 42.0859C109.934 41.4121 109.758 40.6357 109.758 39.7568C109.758 38.8877 109.938 38.0967 110.3 37.3838C110.671 36.6709 111.193 36.0557 111.867 35.5381C112.551 35.0107 113.356 34.6055 114.284 34.3223C115.212 34.0293 116.237 33.8828 117.36 33.8828C118.942 33.8828 120.305 34.1758 121.447 34.7617C122.6 35.3477 123.483 36.1338 124.099 37.1201C124.724 38.1064 125.036 39.1953 125.036 40.3867H121.389C121.389 39.6836 121.237 39.0635 120.935 38.5264C120.642 37.9795 120.192 37.5498 119.587 37.2373C118.991 36.9248 118.234 36.7686 117.316 36.7686C116.447 36.7686 115.725 36.9004 115.148 37.1641C114.572 37.4277 114.143 37.7842 113.859 38.2334C113.576 38.6826 113.435 39.1904 113.435 39.7568C113.435 40.1572 113.527 40.5234 113.713 40.8555C113.898 41.1777 114.182 41.4805 114.562 41.7637C114.943 42.0371 115.422 42.2959 115.998 42.54C116.574 42.7842 117.253 43.0186 118.034 43.2432C119.216 43.5947 120.246 43.9854 121.125 44.415C122.004 44.835 122.736 45.3135 123.322 45.8506C123.908 46.3877 124.348 46.998 124.641 47.6816C124.934 48.3555 125.08 49.1221 125.08 49.9814C125.08 50.8799 124.899 51.6904 124.538 52.4131C124.177 53.126 123.659 53.7363 122.985 54.2441C122.321 54.7422 121.521 55.1279 120.583 55.4014C119.655 55.665 118.62 55.7969 117.478 55.7969C116.452 55.7969 115.441 55.6602 114.445 55.3867C113.459 55.1133 112.561 54.6982 111.75 54.1416C110.939 53.5752 110.295 52.8721 109.816 52.0322C109.338 51.1826 109.099 50.1914 109.099 49.0586H112.775C112.775 49.752 112.893 50.3428 113.127 50.8311C113.371 51.3193 113.708 51.7197 114.138 52.0322C114.567 52.335 115.065 52.5596 115.632 52.7061C116.208 52.8525 116.823 52.9258 117.478 52.9258C118.337 52.9258 119.055 52.8037 119.631 52.5596C120.217 52.3154 120.656 51.9736 120.949 51.5342C121.242 51.0947 121.389 50.5869 121.389 50.0107ZM131.76 39.6543V55.5039H128.215V39.6543H131.76ZM127.98 35.4941C127.98 34.957 128.156 34.5127 128.508 34.1611C128.869 33.7998 129.367 33.6191 130.002 33.6191C130.627 33.6191 131.12 33.7998 131.481 34.1611C131.843 34.5127 132.023 34.957 132.023 35.4941C132.023 36.0215 131.843 36.4609 131.481 36.8125C131.12 37.1641 130.627 37.3398 130.002 37.3398C129.367 37.3398 128.869 37.1641 128.508 36.8125C128.156 36.4609 127.98 36.0215 127.98 35.4941ZM145.778 39.6543H148.986V55.0645C148.986 56.4902 148.684 57.7012 148.078 58.6973C147.473 59.6934 146.628 60.4502 145.544 60.9678C144.46 61.4951 143.205 61.7588 141.779 61.7588C141.174 61.7588 140.5 61.6709 139.758 61.4951C139.025 61.3193 138.312 61.0361 137.619 60.6455C136.936 60.2646 136.364 59.7617 135.905 59.1367L137.561 57.0566C138.127 57.7305 138.752 58.2236 139.436 58.5361C140.119 58.8486 140.837 59.0049 141.589 59.0049C142.399 59.0049 143.088 58.8535 143.654 58.5508C144.23 58.2578 144.675 57.8232 144.987 57.2471C145.3 56.6709 145.456 55.9678 145.456 55.1377V43.2432L145.778 39.6543ZM135.012 47.7549V47.4473C135.012 46.2461 135.158 45.1523 135.451 44.166C135.744 43.1699 136.164 42.3154 136.711 41.6025C137.258 40.8799 137.922 40.3281 138.703 39.9473C139.484 39.5566 140.368 39.3613 141.354 39.3613C142.38 39.3613 143.254 39.5469 143.977 39.918C144.709 40.2891 145.319 40.8213 145.808 41.5146C146.296 42.1982 146.677 43.0186 146.95 43.9756C147.233 44.9229 147.443 45.9775 147.58 47.1396V48.1211C147.453 49.2539 147.238 50.2891 146.936 51.2266C146.633 52.1641 146.232 52.9746 145.734 53.6582C145.236 54.3418 144.621 54.8691 143.889 55.2402C143.166 55.6113 142.312 55.7969 141.325 55.7969C140.358 55.7969 139.484 55.5967 138.703 55.1963C137.932 54.7959 137.268 54.2344 136.711 53.5117C136.164 52.7891 135.744 51.9395 135.451 50.9629C135.158 49.9766 135.012 48.9072 135.012 47.7549ZM138.542 47.4473V47.7549C138.542 48.4775 138.61 49.1514 138.747 49.7764C138.894 50.4014 139.113 50.9531 139.406 51.4316C139.709 51.9004 140.09 52.2715 140.549 52.5449C141.018 52.8086 141.569 52.9404 142.204 52.9404C143.034 52.9404 143.713 52.7646 144.24 52.4131C144.777 52.0615 145.188 51.5879 145.471 50.9922C145.764 50.3867 145.969 49.7129 146.086 48.9707V46.3193C146.027 45.7432 145.905 45.2061 145.72 44.708C145.544 44.21 145.305 43.7754 145.002 43.4043C144.699 43.0234 144.318 42.7305 143.859 42.5254C143.4 42.3105 142.858 42.2031 142.233 42.2031C141.599 42.2031 141.047 42.3398 140.578 42.6133C140.109 42.8867 139.724 43.2627 139.421 43.7412C139.128 44.2197 138.908 44.7764 138.762 45.4111C138.615 46.0459 138.542 46.7246 138.542 47.4473ZM156.149 43.0381V55.5039H152.619V39.6543H155.944L156.149 43.0381ZM155.52 46.9932L154.377 46.9785C154.387 45.8555 154.543 44.8252 154.846 43.8877C155.158 42.9502 155.588 42.1445 156.135 41.4707C156.691 40.7969 157.355 40.2793 158.127 39.918C158.898 39.5469 159.758 39.3613 160.705 39.3613C161.467 39.3613 162.155 39.4688 162.771 39.6836C163.396 39.8887 163.928 40.2256 164.367 40.6943C164.816 41.1631 165.158 41.7734 165.393 42.5254C165.627 43.2676 165.744 44.1807 165.744 45.2646V55.5039H162.199V45.25C162.199 44.4883 162.087 43.8877 161.862 43.4482C161.647 42.999 161.33 42.6816 160.91 42.4961C160.5 42.3008 159.987 42.2031 159.372 42.2031C158.767 42.2031 158.225 42.3301 157.746 42.584C157.268 42.8379 156.862 43.1846 156.53 43.624C156.208 44.0635 155.959 44.5713 155.783 45.1475C155.607 45.7236 155.52 46.3389 155.52 46.9932ZM186.354 51.7686V39.6543H189.899V55.5039H186.56L186.354 51.7686ZM186.853 48.4727L188.039 48.4434C188.039 49.5078 187.922 50.4893 187.688 51.3877C187.453 52.2764 187.092 53.0527 186.604 53.7168C186.115 54.3711 185.49 54.8838 184.729 55.2549C183.967 55.6162 183.054 55.7969 181.989 55.7969C181.218 55.7969 180.51 55.6846 179.865 55.46C179.221 55.2354 178.664 54.8887 178.195 54.4199C177.736 53.9512 177.38 53.3408 177.126 52.5889C176.872 51.8369 176.745 50.9385 176.745 49.8936V39.6543H180.275V49.9229C180.275 50.499 180.344 50.9824 180.48 51.373C180.617 51.7539 180.803 52.0615 181.037 52.2959C181.271 52.5303 181.545 52.6963 181.857 52.7939C182.17 52.8916 182.502 52.9404 182.854 52.9404C183.859 52.9404 184.65 52.7451 185.227 52.3545C185.812 51.9541 186.228 51.417 186.472 50.7432C186.726 50.0693 186.853 49.3125 186.853 48.4727ZM197.062 42.7012V61.5977H193.532V39.6543H196.784L197.062 42.7012ZM207.39 47.4326V47.7402C207.39 48.8926 207.253 49.9619 206.979 50.9482C206.716 51.9248 206.32 52.7793 205.793 53.5117C205.275 54.2344 204.636 54.7959 203.874 55.1963C203.112 55.5967 202.233 55.7969 201.237 55.7969C200.251 55.7969 199.387 55.6162 198.645 55.2549C197.912 54.8838 197.292 54.3613 196.784 53.6875C196.276 53.0137 195.866 52.2227 195.554 51.3145C195.251 50.3965 195.036 49.3906 194.909 48.2969V47.1104C195.036 45.9482 195.251 44.8936 195.554 43.9463C195.866 42.999 196.276 42.1836 196.784 41.5C197.292 40.8164 197.912 40.2891 198.645 39.918C199.377 39.5469 200.231 39.3613 201.208 39.3613C202.204 39.3613 203.088 39.5566 203.859 39.9473C204.631 40.3281 205.28 40.875 205.808 41.5879C206.335 42.291 206.73 43.1406 206.994 44.1367C207.258 45.123 207.39 46.2217 207.39 47.4326ZM203.859 47.7402V47.4326C203.859 46.7002 203.791 46.0215 203.654 45.3965C203.518 44.7617 203.303 44.2051 203.01 43.7266C202.717 43.248 202.341 42.877 201.882 42.6133C201.433 42.3398 200.891 42.2031 200.256 42.2031C199.631 42.2031 199.094 42.3105 198.645 42.5254C198.195 42.7305 197.819 43.0186 197.517 43.3896C197.214 43.7607 196.979 44.1953 196.813 44.6934C196.647 45.1816 196.53 45.7139 196.462 46.29V49.1318C196.579 49.835 196.779 50.4795 197.062 51.0654C197.346 51.6514 197.746 52.1201 198.264 52.4717C198.791 52.8135 199.465 52.9844 200.285 52.9844C200.92 52.9844 201.462 52.8477 201.911 52.5742C202.36 52.3008 202.727 51.9248 203.01 51.4463C203.303 50.958 203.518 50.3965 203.654 49.7617C203.791 49.127 203.859 48.4531 203.859 47.7402ZM222.17 51.9883L225.832 39.6543H228.088L227.473 43.3457L223.781 55.5039H221.76L222.17 51.9883ZM220.017 39.6543L222.873 52.0469L223.107 55.5039H220.852L216.56 39.6543H220.017ZM231.516 51.9004L234.284 39.6543H237.727L233.449 55.5039H231.193L231.516 51.9004ZM228.469 39.6543L232.087 51.8418L232.541 55.5039H230.52L226.784 43.3311L226.169 39.6543H228.469ZM243.908 39.6543V55.5039H240.363V39.6543H243.908ZM240.129 35.4941C240.129 34.957 240.305 34.5127 240.656 34.1611C241.018 33.7998 241.516 33.6191 242.15 33.6191C242.775 33.6191 243.269 33.7998 243.63 34.1611C243.991 34.5127 244.172 34.957 244.172 35.4941C244.172 36.0215 243.991 36.4609 243.63 36.8125C243.269 37.1641 242.775 37.3398 242.15 37.3398C241.516 37.3398 241.018 37.1641 240.656 36.8125C240.305 36.4609 240.129 36.0215 240.129 35.4941ZM255.041 39.6543V42.2324H246.105V39.6543H255.041ZM248.684 35.7725H252.214V51.124C252.214 51.6123 252.282 51.9883 252.419 52.252C252.565 52.5059 252.766 52.6768 253.02 52.7646C253.273 52.8525 253.571 52.8965 253.913 52.8965C254.157 52.8965 254.392 52.8818 254.616 52.8525C254.841 52.8232 255.021 52.7939 255.158 52.7646L255.173 55.46C254.88 55.5479 254.538 55.626 254.147 55.6943C253.767 55.7627 253.327 55.7969 252.829 55.7969C252.019 55.7969 251.301 55.6553 250.676 55.3721C250.051 55.0791 249.562 54.6055 249.211 53.9512C248.859 53.2969 248.684 52.4277 248.684 51.3438V35.7725ZM261.252 33.0039V55.5039H257.736V33.0039H261.252ZM260.637 46.9932L259.494 46.9785C259.504 45.8848 259.655 44.874 259.948 43.9463C260.251 43.0186 260.671 42.2129 261.208 41.5293C261.755 40.8359 262.409 40.3037 263.171 39.9326C263.933 39.5518 264.777 39.3613 265.705 39.3613C266.486 39.3613 267.189 39.4688 267.814 39.6836C268.449 39.8984 268.996 40.2451 269.455 40.7236C269.914 41.1924 270.261 41.8076 270.495 42.5693C270.739 43.3213 270.861 44.2393 270.861 45.3232V55.5039H267.316V45.2939C267.316 44.5322 267.204 43.9268 266.979 43.4775C266.765 43.0283 266.447 42.7061 266.027 42.5107C265.607 42.3057 265.095 42.2031 264.489 42.2031C263.854 42.2031 263.293 42.3301 262.805 42.584C262.326 42.8379 261.926 43.1846 261.604 43.624C261.281 44.0635 261.037 44.5713 260.871 45.1475C260.715 45.7236 260.637 46.3389 260.637 46.9932ZM298.635 44.6055V52.75C298.332 53.1504 297.858 53.5898 297.214 54.0684C296.579 54.5371 295.734 54.9424 294.68 55.2842C293.625 55.626 292.312 55.7969 290.739 55.7969C289.401 55.7969 288.176 55.5723 287.062 55.123C285.949 54.6641 284.987 53.9951 284.177 53.1162C283.376 52.2373 282.756 51.168 282.316 49.9082C281.877 48.6387 281.657 47.1934 281.657 45.5723V44.0928C281.657 42.4814 281.857 41.0459 282.258 39.7861C282.668 38.5166 283.254 37.4424 284.016 36.5635C284.777 35.6846 285.695 35.0205 286.77 34.5713C287.854 34.1123 289.079 33.8828 290.446 33.8828C292.194 33.8828 293.64 34.1758 294.782 34.7617C295.935 35.3379 296.823 36.1387 297.448 37.1641C298.073 38.1895 298.469 39.3613 298.635 40.6797H295.031C294.914 39.9375 294.685 39.2734 294.343 38.6875C294.011 38.1016 293.532 37.6426 292.907 37.3105C292.292 36.9688 291.491 36.7979 290.505 36.7979C289.655 36.7979 288.908 36.959 288.264 37.2812C287.619 37.6035 287.082 38.0771 286.652 38.7021C286.232 39.3271 285.915 40.0889 285.7 40.9873C285.485 41.8857 285.378 42.9111 285.378 44.0635V45.5723C285.378 46.7441 285.5 47.7842 285.744 48.6924C285.998 49.6006 286.359 50.3672 286.828 50.9922C287.307 51.6172 287.888 52.0908 288.571 52.4131C289.255 52.7256 290.026 52.8818 290.886 52.8818C291.726 52.8818 292.414 52.8135 292.951 52.6768C293.488 52.5303 293.913 52.3594 294.226 52.1641C294.548 51.959 294.797 51.7637 294.973 51.5781V47.3447H290.534V44.6055H298.635ZM301.682 47.7549V47.418C301.682 46.2754 301.848 45.2158 302.18 44.2393C302.512 43.2529 302.99 42.3984 303.615 41.6758C304.25 40.9434 305.021 40.377 305.93 39.9766C306.848 39.5664 307.883 39.3613 309.035 39.3613C310.197 39.3613 311.232 39.5664 312.141 39.9766C313.059 40.377 313.835 40.9434 314.47 41.6758C315.104 42.3984 315.588 43.2529 315.92 44.2393C316.252 45.2158 316.418 46.2754 316.418 47.418V47.7549C316.418 48.8975 316.252 49.957 315.92 50.9336C315.588 51.9102 315.104 52.7646 314.47 53.4971C313.835 54.2197 313.063 54.7861 312.155 55.1963C311.247 55.5967 310.217 55.7969 309.064 55.7969C307.902 55.7969 306.862 55.5967 305.944 55.1963C305.036 54.7861 304.265 54.2197 303.63 53.4971C302.995 52.7646 302.512 51.9102 302.18 50.9336C301.848 49.957 301.682 48.8975 301.682 47.7549ZM305.212 47.418V47.7549C305.212 48.4678 305.285 49.1416 305.432 49.7764C305.578 50.4111 305.808 50.9678 306.12 51.4463C306.433 51.9248 306.833 52.3008 307.321 52.5742C307.81 52.8477 308.391 52.9844 309.064 52.9844C309.719 52.9844 310.285 52.8477 310.764 52.5742C311.252 52.3008 311.652 51.9248 311.965 51.4463C312.277 50.9678 312.507 50.4111 312.653 49.7764C312.81 49.1416 312.888 48.4678 312.888 47.7549V47.418C312.888 46.7148 312.81 46.0508 312.653 45.4258C312.507 44.791 312.272 44.2295 311.95 43.7412C311.638 43.2529 311.237 42.8721 310.749 42.5986C310.271 42.3154 309.699 42.1738 309.035 42.1738C308.371 42.1738 307.795 42.3154 307.307 42.5986C306.828 42.8721 306.433 43.2529 306.12 43.7412C305.808 44.2295 305.578 44.791 305.432 45.4258C305.285 46.0508 305.212 46.7148 305.212 47.418ZM318.703 47.7549V47.418C318.703 46.2754 318.869 45.2158 319.201 44.2393C319.533 43.2529 320.012 42.3984 320.637 41.6758C321.271 40.9434 322.043 40.377 322.951 39.9766C323.869 39.5664 324.904 39.3613 326.057 39.3613C327.219 39.3613 328.254 39.5664 329.162 39.9766C330.08 40.377 330.856 40.9434 331.491 41.6758C332.126 42.3984 332.609 43.2529 332.941 44.2393C333.273 45.2158 333.439 46.2754 333.439 47.418V47.7549C333.439 48.8975 333.273 49.957 332.941 50.9336C332.609 51.9102 332.126 52.7646 331.491 53.4971C330.856 54.2197 330.085 54.7861 329.177 55.1963C328.269 55.5967 327.238 55.7969 326.086 55.7969C324.924 55.7969 323.884 55.5967 322.966 55.1963C322.058 54.7861 321.286 54.2197 320.651 53.4971C320.017 52.7646 319.533 51.9102 319.201 50.9336C318.869 49.957 318.703 48.8975 318.703 47.7549ZM322.233 47.418V47.7549C322.233 48.4678 322.307 49.1416 322.453 49.7764C322.6 50.4111 322.829 50.9678 323.142 51.4463C323.454 51.9248 323.854 52.3008 324.343 52.5742C324.831 52.8477 325.412 52.9844 326.086 52.9844C326.74 52.9844 327.307 52.8477 327.785 52.5742C328.273 52.3008 328.674 51.9248 328.986 51.4463C329.299 50.9678 329.528 50.4111 329.675 49.7764C329.831 49.1416 329.909 48.4678 329.909 47.7549V47.418C329.909 46.7148 329.831 46.0508 329.675 45.4258C329.528 44.791 329.294 44.2295 328.972 43.7412C328.659 43.2529 328.259 42.8721 327.771 42.5986C327.292 42.3154 326.721 42.1738 326.057 42.1738C325.393 42.1738 324.816 42.3154 324.328 42.5986C323.85 42.8721 323.454 43.2529 323.142 43.7412C322.829 44.2295 322.6 44.791 322.453 45.4258C322.307 46.0508 322.233 46.7148 322.233 47.418ZM346.55 39.6543H349.758V55.0645C349.758 56.4902 349.455 57.7012 348.85 58.6973C348.244 59.6934 347.399 60.4502 346.315 60.9678C345.231 61.4951 343.977 61.7588 342.551 61.7588C341.945 61.7588 341.271 61.6709 340.529 61.4951C339.797 61.3193 339.084 61.0361 338.391 60.6455C337.707 60.2646 337.136 59.7617 336.677 59.1367L338.332 57.0566C338.898 57.7305 339.523 58.2236 340.207 58.5361C340.891 58.8486 341.608 59.0049 342.36 59.0049C343.171 59.0049 343.859 58.8535 344.426 58.5508C345.002 58.2578 345.446 57.8232 345.759 57.2471C346.071 56.6709 346.228 55.9678 346.228 55.1377V43.2432L346.55 39.6543ZM335.783 47.7549V47.4473C335.783 46.2461 335.93 45.1523 336.223 44.166C336.516 43.1699 336.936 42.3154 337.482 41.6025C338.029 40.8799 338.693 40.3281 339.475 39.9473C340.256 39.5566 341.14 39.3613 342.126 39.3613C343.151 39.3613 344.025 39.5469 344.748 39.918C345.48 40.2891 346.091 40.8213 346.579 41.5146C347.067 42.1982 347.448 43.0186 347.722 43.9756C348.005 44.9229 348.215 45.9775 348.352 47.1396V48.1211C348.225 49.2539 348.01 50.2891 347.707 51.2266C347.404 52.1641 347.004 52.9746 346.506 53.6582C346.008 54.3418 345.393 54.8691 344.66 55.2402C343.938 55.6113 343.083 55.7969 342.097 55.7969C341.13 55.7969 340.256 55.5967 339.475 55.1963C338.703 54.7959 338.039 54.2344 337.482 53.5117C336.936 52.7891 336.516 51.9395 336.223 50.9629C335.93 49.9766 335.783 48.9072 335.783 47.7549ZM339.313 47.4473V47.7549C339.313 48.4775 339.382 49.1514 339.519 49.7764C339.665 50.4014 339.885 50.9531 340.178 51.4316C340.48 51.9004 340.861 52.2715 341.32 52.5449C341.789 52.8086 342.341 52.9404 342.976 52.9404C343.806 52.9404 344.484 52.7646 345.012 52.4131C345.549 52.0615 345.959 51.5879 346.242 50.9922C346.535 50.3867 346.74 49.7129 346.857 48.9707V46.3193C346.799 45.7432 346.677 45.2061 346.491 44.708C346.315 44.21 346.076 43.7754 345.773 43.4043C345.471 43.0234 345.09 42.7305 344.631 42.5254C344.172 42.3105 343.63 42.2031 343.005 42.2031C342.37 42.2031 341.818 42.3398 341.35 42.6133C340.881 42.8867 340.495 43.2627 340.192 43.7412C339.899 44.2197 339.68 44.7764 339.533 45.4111C339.387 46.0459 339.313 46.7246 339.313 47.4473ZM357.199 33.0039V55.5039H353.654V33.0039H357.199ZM368.054 55.7969C366.882 55.7969 365.822 55.6064 364.875 55.2256C363.938 54.835 363.137 54.293 362.473 53.5996C361.818 52.9062 361.315 52.0908 360.964 51.1533C360.612 50.2158 360.437 49.2051 360.437 48.1211V47.5352C360.437 46.2949 360.617 45.1719 360.979 44.166C361.34 43.1602 361.843 42.3008 362.487 41.5879C363.132 40.8652 363.894 40.3135 364.772 39.9326C365.651 39.5518 366.604 39.3613 367.629 39.3613C368.762 39.3613 369.753 39.5518 370.603 39.9326C371.452 40.3135 372.155 40.8506 372.712 41.5439C373.278 42.2275 373.698 43.043 373.972 43.9902C374.255 44.9375 374.396 45.9824 374.396 47.125V48.6338H362.15V46.0996H370.91V45.8213C370.891 45.1865 370.764 44.5908 370.529 44.0342C370.305 43.4775 369.958 43.0283 369.489 42.6865C369.021 42.3447 368.396 42.1738 367.614 42.1738C367.028 42.1738 366.506 42.3008 366.047 42.5547C365.598 42.7988 365.222 43.1553 364.919 43.624C364.616 44.0928 364.382 44.6592 364.216 45.3232C364.06 45.9775 363.981 46.7148 363.981 47.5352V48.1211C363.981 48.8145 364.074 49.459 364.26 50.0547C364.455 50.6406 364.738 51.1533 365.109 51.5928C365.48 52.0322 365.93 52.3789 366.457 52.6328C366.984 52.877 367.585 52.999 368.259 52.999C369.108 52.999 369.865 52.8281 370.529 52.4863C371.193 52.1445 371.77 51.6611 372.258 51.0361L374.118 52.8379C373.776 53.3359 373.332 53.8145 372.785 54.2734C372.238 54.7227 371.569 55.0889 370.778 55.3721C369.997 55.6553 369.089 55.7969 368.054 55.7969Z" fill="#1F1F1F"/>
</svg>
