<svg width="600" height="91" viewBox="0 0 600 91" fill="none" xmlns="http://www.w3.org/2000/svg">
<rect y="0.503906" width="600" height="90" rx="12" fill="#FEE500"/>
<g clip-path="url(#clip0_249_4055)">
<path opacity="0.902" fill-rule="evenodd" clip-rule="evenodd" d="M48 29.3926C38.58 29.3926 30 36.9646 30 43.3706C30 48.1706 33.116 52.4046 37.862 54.9206L35.866 62.2526C35.688 62.9026 36.426 63.4186 36.992 63.0446L45.746 57.2346C46.484 57.3066 47.236 57.3486 48 57.3486C57.94 57.3486 66 51.0906 66 43.3706C66 36.9646 57.94 29.3926 48 29.3926Z" fill="black"/>
</g>
<path d="M267.797 36.7979C267.72 41.2059 266.685 44.8696 264.694 47.7889C262.703 50.6889 259.88 53.0186 256.226 54.7779L254.863 53.1249C259.213 51.2496 262.268 48.4462 264.027 44.7149L255.472 45.4689L255.008 43.4679L264.723 42.8879C265.148 41.5152 265.4 40.0942 265.477 38.6249H256.081V36.7979H267.797ZM274.09 34.1879V44.5699H278.237V46.4549H274.09V59.5339H271.886V34.1879H274.09ZM292.889 36.7979C292.811 41.2059 291.777 44.8696 289.786 47.7889C287.794 50.6889 284.972 53.0186 281.318 54.7779L279.955 53.1249C284.305 51.2496 287.359 48.4462 289.119 44.7149L280.564 45.4689L280.1 43.4679L289.815 42.8879C290.24 41.5152 290.491 40.0942 290.569 38.6249H281.173V36.7979H292.889ZM299.182 34.1879V44.5699H303.329V46.4549H299.182V59.5339H296.978V34.1879H299.182ZM325.347 42.6849C325.347 44.6182 324.612 46.2036 323.143 47.4409C321.693 48.6782 319.74 49.3742 317.285 49.5289V54.3429H327.667V56.1989H304.786V54.3429H315.081V49.5289C312.645 49.3549 310.702 48.6589 309.252 47.4409C307.802 46.2036 307.077 44.6182 307.077 42.6849C307.077 40.5969 307.908 38.9246 309.571 37.6679C311.253 36.4112 313.457 35.7829 316.183 35.7829C318.947 35.7829 321.161 36.4112 322.824 37.6679C324.506 38.9246 325.347 40.5969 325.347 42.6849ZM321.287 46.3969C322.582 45.4689 323.23 44.2412 323.23 42.7139C323.23 41.1866 322.592 39.9589 321.316 39.0309C320.04 38.1029 318.329 37.6389 316.183 37.6389C314.075 37.6389 312.384 38.1029 311.108 39.0309C309.851 39.9589 309.223 41.1866 309.223 42.7139C309.223 44.2412 309.851 45.4689 311.108 46.3969C312.384 47.3056 314.075 47.7599 316.183 47.7599C318.309 47.7599 320.011 47.3056 321.287 46.3969ZM360.377 56.3149H337.496V54.4589H347.791V50.1379H340.309V42.2209H355.331V38.1609H340.28V36.3049H357.535V44.0479H342.513V48.2819H358.26V50.1379H349.995V54.4589H360.377V56.3149ZM385.468 55.7929H362.587V53.9369H385.468V55.7929ZM382.191 37.0299C382.191 43.2746 381.814 48.2722 381.06 52.0229L378.856 51.7329C379.572 48.4269 379.929 44.1349 379.929 38.8569H364.965V37.0299H382.191ZM408.385 52.6899H406.181V34.1879H408.385V52.6899ZM409.023 58.6929H391.855V50.8629H394.059V56.8659H409.023V58.6929ZM395.045 35.8699C396.998 35.8699 398.622 36.4596 399.917 37.6389C401.232 38.8182 401.889 40.3359 401.889 42.1919C401.889 44.0479 401.241 45.5656 399.946 46.7449C398.651 47.9049 397.027 48.4849 395.074 48.4849C393.121 48.4849 391.488 47.9049 390.173 46.7449C388.878 45.5849 388.23 44.0769 388.23 42.2209C388.23 40.3649 388.878 38.8472 390.173 37.6679C391.488 36.4692 393.112 35.8699 395.045 35.8699ZM395.045 37.7839C393.692 37.7839 392.57 38.1996 391.681 39.0309C390.792 39.8622 390.347 40.9159 390.347 42.1919C390.347 43.4486 390.792 44.4926 391.681 45.3239C392.59 46.1359 393.721 46.5419 395.074 46.5419C396.466 46.5419 397.597 46.1359 398.467 45.3239C399.356 44.5119 399.801 43.4776 399.801 42.2209C399.801 40.9062 399.356 39.8429 398.467 39.0309C397.597 38.1996 396.456 37.7839 395.045 37.7839Z" fill="black"/>
<defs>
<clipPath id="clip0_249_4055">
<rect width="36" height="36" fill="white" transform="translate(30 27.5039)"/>
</clipPath>
</defs>
</svg>
