<svg width="746" height="128" viewBox="0 0 746 128" fill="none" xmlns="http://www.w3.org/2000/svg">
<path d="M54.249 48.9366C53.9837 49.092 53.5894 49.2823 53.0918 49.3988C51.3008 49.8105 49.7972 48.8512 49.3513 48.5676C48.9091 48.2841 47.962 47.6005 47.0554 46.008C46.0641 44.2717 46.1231 43.2152 46.0051 34.437C45.9867 33.1397 45.9683 31.6249 46.9006 30.9102C47.4461 30.4946 48.2974 30.3665 49.0012 30.6578C49.5724 30.8947 49.9594 31.3647 50.269 31.9473C51.0613 33.4349 50.9323 34.8682 50.8807 39.1369C50.8549 41.2771 50.8697 42.3141 51.5588 43.1919C51.9752 43.7202 52.8007 44.4077 52.8928 44.4815C53.9358 45.3399 54.2969 45.3166 54.6433 45.9575C54.7613 46.1711 55.163 46.9907 54.9271 47.9151C54.8681 48.152 54.7797 48.3423 54.7097 48.4666" fill="#10C7F9"/>
<path d="M69.2236 45.2061C68.9736 45.2061 68.7352 45.2523 68.5122 45.3293C68.6545 44.8327 68.7352 44.3091 68.7352 43.7663C68.7352 40.6366 66.2013 38.0996 63.0751 38.0996C59.949 38.0996 57.415 40.6366 57.415 43.7663C57.415 46.8961 59.949 49.4331 63.0751 49.4331C64.6555 49.4331 66.0859 48.7825 67.1126 47.7354C67.2933 48.7401 68.1662 49.5024 69.2197 49.5024C70.404 49.5024 71.3653 48.5399 71.3653 47.3542C71.3653 46.1685 70.404 45.2061 69.2197 45.2061H69.2236ZM66.4358 44.6056C66.3935 45.2716 66.0167 45.7913 65.9475 45.876C65.1092 46.9385 63.2405 46.9808 63.0598 46.9808V46.9693C62.4984 46.9616 61.0872 46.8499 60.3489 45.9992C60.2759 45.9145 59.8721 45.414 59.7991 44.7519C59.776 44.5401 59.799 44.39 59.9029 44.2822C60.0605 44.1167 60.3566 44.0743 60.5642 44.1783C60.8449 44.313 60.7373 44.6094 61.0603 45.0483C61.3025 45.3755 61.6024 45.541 61.7332 45.6103C62.0446 45.7759 62.3176 45.8221 62.4522 45.8452C62.7137 45.8875 62.9329 45.8798 63.1059 45.8606C63.1059 45.8606 63.1059 45.8606 63.1097 45.8606C63.1367 45.8606 63.1674 45.8567 63.1905 45.8529V45.8683C63.3635 45.8798 63.5827 45.876 63.8403 45.8221C63.9749 45.7951 64.2441 45.7335 64.5478 45.5526C64.6747 45.4756 64.967 45.2985 65.19 44.9597C65.4938 44.5055 65.3707 44.2129 65.6437 44.0666C65.8475 43.955 66.1436 43.9819 66.3089 44.1398C66.4204 44.2437 66.4474 44.3938 66.432 44.6056H66.4358Z" fill="#10C7F9"/>
<path d="M59.6686 38.7358C60.057 38.5356 59.8955 38.1199 60.3377 37.4924C60.6684 37.0227 61.0837 36.784 61.2644 36.6801C61.695 36.4375 62.0796 36.3606 62.268 36.3259C62.6333 36.2566 62.9447 36.2605 63.1831 36.2797V36.299C63.2177 36.2951 63.26 36.2913 63.2985 36.2874C63.2985 36.2874 63.3023 36.2874 63.3062 36.2874C63.5446 36.2682 63.8599 36.2643 64.2213 36.3298C64.4136 36.3644 64.7942 36.4414 65.2249 36.6839C65.4056 36.784 65.8209 37.0265 66.1516 37.4962C66.5938 38.1237 66.4323 38.5395 66.8207 38.7397C67.109 38.8898 67.5282 38.8398 67.755 38.6165C67.9088 38.4663 67.9396 38.2585 67.9165 37.9582C67.8358 37.0227 67.2859 36.3067 67.186 36.1835C66.1747 34.9631 64.1906 34.7629 63.4023 34.7283V34.7129C63.1447 34.7129 60.5184 34.7052 59.3033 36.1719C59.2034 36.2913 58.6535 37.0111 58.5728 37.9466C58.5458 38.2469 58.5804 38.4548 58.7343 38.6049C58.965 38.8282 59.3802 38.8783 59.6686 38.7281V38.7358Z" fill="#10C7F9"/>
<path d="M85.339 36.611C84.2662 36.1106 82.9896 36.5725 82.4898 37.6466C82.3167 38.0161 82.2629 38.4127 82.3052 38.7899C81.9745 38.532 81.613 38.301 81.2132 38.1162C79.9212 37.5118 78.5215 37.4425 77.2526 37.8121C77.3103 34.2781 77.3641 32.9577 76.5989 31.5949C76.2759 31.0174 75.8722 30.5478 75.2762 30.3168C74.5418 30.0319 73.6574 30.1551 73.0845 30.567C72.1078 31.2753 72.1309 32.7767 72.1501 34.0625C72.2693 42.7628 72.2116 43.8061 73.2459 45.5307C74.1919 47.1091 75.1801 47.7866 75.6415 48.0677C76.1029 48.3487 77.6717 49.2996 79.5443 48.8915C79.5943 48.8799 79.6405 48.8645 79.6905 48.853C81.49 48.572 83.1204 47.4286 83.9509 45.6501C84.7315 43.9793 84.62 42.1276 83.824 40.6147C84.8276 40.915 85.9273 40.4453 86.3811 39.4675C86.8809 38.3934 86.4195 37.1153 85.3467 36.6149L85.339 36.611ZM82.0476 43.8754C82.0053 44.5414 81.6284 45.0611 81.5592 45.1458C80.721 46.2083 78.8522 46.2506 78.6715 46.2506V46.2391C78.1101 46.2314 76.6989 46.1197 75.9607 45.2689C75.8876 45.1842 75.4838 44.6838 75.4108 44.0216C75.3877 43.8099 75.4108 43.6598 75.5146 43.552C75.6723 43.3864 75.9683 43.3441 76.176 43.448C76.4528 43.5828 76.349 43.8792 76.672 44.3181C76.9142 44.6453 77.2142 44.8108 77.3449 44.8801C77.6564 45.0457 77.9294 45.0919 78.064 45.115C78.3254 45.1573 78.5446 45.1496 78.7176 45.1304C78.7176 45.1304 78.7176 45.1304 78.7215 45.1304C78.7484 45.1304 78.7792 45.1265 78.8022 45.1227V45.1381C78.9753 45.1496 79.1944 45.1458 79.4521 45.0919C79.5866 45.0649 79.8558 45.0033 80.1596 44.8224C80.2865 44.7454 80.5787 44.5683 80.8017 44.2295C81.1055 43.7753 80.9824 43.4827 81.2555 43.3364C81.4592 43.2248 81.7553 43.2517 81.9207 43.4095C82.0322 43.5135 82.0591 43.6636 82.0437 43.8754H82.0476Z" fill="#10C7F9"/>
<path d="M91.7608 44.5339C90.688 44.0334 89.4114 44.4954 88.9115 45.5694C88.4117 46.6435 88.8731 47.9216 89.9459 48.422C91.0187 48.9225 92.2953 48.4605 92.7952 47.3865C93.295 46.3124 92.8336 45.0343 91.7608 44.5339Z" fill="#10C7F9"/>
<path d="M34.8764 40.707C34.8119 40.4158 34.6484 39.6878 34.1749 39.1245C33.7932 38.6686 33.3991 38.5421 33.2033 38.5C27.1803 38.5153 21.1572 38.5345 15.1342 38.5498C10.69 38.5383 6.24581 38.5268 1.79916 38.5115C1.60335 38.5536 1.20925 38.6801 0.827541 39.136C0.354124 39.6993 0.190534 40.4273 0.12609 40.7185C-0.149037 41.9906 0.0319041 43.5538 0.611902 44.4696C1.22412 45.439 2.14865 45.4658 2.55266 45.4696C8.64016 45.5233 16.0636 45.4926 19.0157 45.4773C22.632 45.4888 27.909 45.4965 32.4473 45.4581C32.8514 45.4581 33.7759 45.4275 34.3881 44.4581C34.9681 43.5424 35.149 41.9791 34.8739 40.707H34.8764Z" fill="#10C7F9"/>
<path d="M76.7107 41.5476C76.4624 41.43 76.1652 41.5378 76.0476 41.7893C75.93 42.0376 76.0378 42.3348 76.2893 42.4524C76.5376 42.57 76.8348 42.4622 76.9524 42.2107C77.07 41.9624 76.9622 41.6652 76.7107 41.5476Z" fill="#10C7F9"/>
<path d="M125.891 40.707C125.833 40.4158 125.689 39.6878 125.269 39.1245C124.931 38.6686 124.582 38.5421 124.409 38.5C119.074 38.5153 113.739 38.5345 108.405 38.5498C104.468 38.5383 100.532 38.5268 96.5935 38.5115C96.4201 38.5536 96.0711 38.6801 95.733 39.136C95.3137 39.6993 95.1688 40.4273 95.1117 40.7185C94.868 41.9906 95.0283 43.5538 95.542 44.4696C96.0842 45.439 96.9031 45.4658 97.2609 45.4696C102.653 45.5233 109.228 45.4926 111.842 45.4773C115.045 45.4888 119.719 45.4965 123.739 45.4581C124.097 45.4581 124.916 45.4275 125.458 44.4581C125.972 43.5424 126.132 41.9791 125.888 40.707H125.891Z" fill="#10C7F9"/>
<path d="M63.5508 6.81448C63.4107 5.97901 63.1056 5.1527 62.6065 4.36907C60.3338 0.789369 55.0738 -0.546156 50.8586 1.38395C46.6435 3.31406 45.0709 7.78106 47.3436 11.3608C49.1676 14.2331 52.916 15.657 56.5064 15.1112C56.4812 16.1022 56.4453 17.0535 56.4417 17.9774C56.4346 18.0384 56.4274 18.0963 56.4238 18.1451C56.3771 19.5752 56.3305 21.0052 56.2874 22.4352C56.2658 22.5023 56.0396 23.1914 55.1528 23.4445C55.0989 23.4598 55.0451 23.4659 54.9948 23.4781C54.9948 23.4689 54.9948 23.4628 54.9948 23.4567C54.8081 23.4903 54.3808 23.5421 53.9105 23.4079C53.0237 23.1549 52.7975 22.4657 52.7759 22.3987C52.7293 20.9686 52.6826 19.5386 52.6395 18.1085C52.6323 17.8798 52.5677 17.5109 52.2481 17.1602C51.5193 16.3705 50.0795 16.3461 49.5517 16.337C49.0706 16.3278 47.5447 16.3034 46.8051 17.0779C46.543 17.3523 46.4604 17.6389 46.4353 17.8341C46.3814 18.1817 46.2988 18.7153 46.2162 19.3648C46.1229 20.0966 46.0403 20.8954 46.0188 21.2125C45.9793 21.8102 45.8069 24.4721 48.1551 26.4845C48.6003 26.8657 49.3686 27.4236 50.6109 27.9085C50.9197 28.0243 51.2895 28.1432 51.7239 28.2408C52.5174 28.4207 53.2283 28.4604 53.7597 28.4604L54.1223 28.4421L55.3072 28.5C55.835 28.5 56.5459 28.4604 57.3429 28.2805C57.7738 28.1829 58.1472 28.064 58.456 27.9481C59.6983 27.4663 60.4702 26.9053 60.9118 26.5242C61.6981 25.8503 62.1972 25.1033 62.5203 24.3837C63.4072 23.4018 63.4897 21.8407 63.5615 20.4716C64.0355 11.3516 64.2473 8.71105 63.5615 6.81448H63.5508ZM60.7682 8.29636C60.6713 9.25075 60.0106 9.98559 59.8886 10.1076C58.4237 11.6077 55.2605 11.6016 54.9517 11.5986V11.5833C54.0039 11.5529 51.6126 11.3455 50.3955 10.0984C50.2734 9.97644 49.6128 9.2416 49.5158 8.28722C49.4835 7.9823 49.523 7.76886 49.7097 7.61641C49.9862 7.38772 50.4888 7.33588 50.8371 7.48834C51.3039 7.69263 51.11 8.11647 51.6449 8.75984C52.0435 9.23855 52.5426 9.48553 52.758 9.5892C53.2786 9.83923 53.7382 9.91546 53.9679 9.95205C54.406 10.0222 54.783 10.0191 55.0702 9.99779H55.0774C55.1241 9.99474 55.1743 9.99169 55.2174 9.98864V10.01C55.5082 10.0313 55.8852 10.0344 56.3197 9.96425C56.5495 9.92766 57.009 9.85143 57.5296 9.6014C57.7451 9.49773 58.2477 9.25075 58.6427 8.77203C59.1776 8.12866 58.9838 7.70788 59.4505 7.50054C59.7988 7.34808 60.3014 7.39687 60.5779 7.6286C60.761 7.78106 60.8005 7.9945 60.7718 8.29941L60.7682 8.29636Z" fill="#10C7F9"/>
<path d="M83.92 4.965C81.5612 0.835068 76.1041 -0.707724 71.7277 1.52C67.3548 3.74772 65.7212 8.90167 68.08 13.035C70.4388 17.1649 75.8959 18.7077 80.2723 16.48C84.6452 14.2523 86.2788 9.09833 83.92 4.965ZM82.01 9.49844C81.9095 10.6004 81.2238 11.4481 81.0981 11.5905C79.5794 13.3198 76.2944 13.3164 75.9749 13.313V13.2961C74.9911 13.2588 72.5103 13.0214 71.2466 11.5804C71.1209 11.4379 70.4352 10.5903 70.3347 9.48827C70.3023 9.13563 70.3454 8.8881 70.5357 8.71179C70.8229 8.44731 71.3435 8.38966 71.7061 8.56598C72.1908 8.80334 71.9897 9.2916 72.5426 10.0308C72.9555 10.5835 73.4761 10.8683 73.6987 10.987C74.2372 11.2752 74.7147 11.3634 74.9552 11.404C75.4112 11.4854 75.8025 11.482 76.1005 11.4583H76.1077C76.158 11.4549 76.2082 11.4515 76.2513 11.4447V11.4685C76.5529 11.4922 76.9442 11.4956 77.3966 11.4142C77.6336 11.3735 78.111 11.2854 78.6532 10.9972C78.8758 10.8785 79.3963 10.5937 79.8092 10.041C80.3621 9.29839 80.1611 8.81012 80.6457 8.57615C81.0083 8.39984 81.5289 8.45748 81.8161 8.72196C82.0064 8.89828 82.0495 9.1458 82.0172 9.49844H82.01Z" fill="#10C7F9"/>
<path d="M25.9277 86.6758C25.0977 83.6973 22.7051 81.9883 19.2383 81.9883C14.0625 81.9883 10.7422 85.8945 10.7422 92.7793C10.7422 99.7129 13.8672 103.668 19.2383 103.668C23.9502 103.668 26.6113 101.202 26.709 97.3691H19.5801V91.2656H34.7168V95.9043C34.7168 105.328 28.2227 110.992 19.1895 110.992C9.08203 110.992 2.24609 104.059 2.24609 92.877C2.24609 81.3047 9.66797 74.6641 19.043 74.6641C27.1973 74.6641 33.4961 79.6445 34.375 86.6758H25.9277ZM52.502 110.992C44.2012 110.992 39.1719 105.475 39.1719 97.3203C39.1719 89.166 44.2012 83.6484 52.502 83.6484C60.8027 83.6484 65.832 89.166 65.832 97.3203C65.832 105.475 60.8027 110.992 52.502 110.992ZM52.5508 104.791C55.6758 104.791 57.4336 101.715 57.4336 97.2715C57.4336 92.8281 55.6758 89.752 52.5508 89.752C49.3281 89.752 47.5703 92.8281 47.5703 97.2715C47.5703 101.715 49.3281 104.791 52.5508 104.791ZM82.3105 110.504V75.1523H90.6113V103.717H105.455V110.504H82.3105ZM109.031 103.131C109.031 97.2715 113.572 95.1719 118.846 94.8301C120.75 94.708 124.07 94.5859 125.193 94.5371V92.3887C125.193 90.5332 123.826 89.5078 121.58 89.5078C119.383 89.5078 118.016 90.4355 117.674 92.1934H110.008C110.35 87.5059 114.354 83.6484 121.775 83.6484C128.318 83.6484 133.445 86.7734 133.445 92.4863V110.504H125.682V106.793H125.486C124.021 109.479 121.482 110.992 117.771 110.992C112.693 110.992 109.031 108.404 109.031 103.131ZM116.844 102.789C116.844 104.596 118.26 105.523 120.262 105.523C123.045 105.523 125.291 103.717 125.242 101.08V99.3711C124.241 99.4199 121.434 99.542 120.213 99.6641C118.162 99.9082 116.844 101.031 116.844 102.789ZM139.023 110.504V75.1523H147.227V88.5312H147.422C148.447 86.1387 150.693 83.6484 154.941 83.6484C160.508 83.6484 165.537 87.9453 165.537 97.2715C165.537 106.256 160.801 110.895 154.893 110.895C150.84 110.895 148.496 108.6 147.422 106.207H147.178V110.504H139.023ZM147.08 97.2227C147.08 101.617 148.936 104.449 152.109 104.449C155.283 104.449 157.09 101.617 157.09 97.2227C157.09 92.9258 155.332 90.0938 152.109 90.0938C148.887 90.0938 147.08 92.8281 147.08 97.2227ZM206.418 71.2461V114.312H203.439V71.2461H206.418ZM197.873 72.2227V112.066H194.895V90.9238H188.693C188.327 99.2734 184.738 104.547 179.416 104.547C173.85 104.547 170.236 98.7852 170.236 89.8008C170.236 80.7676 173.85 75.0547 179.416 75.0547C184.665 75.0547 188.229 80.1328 188.645 88.2871H194.895V72.2227H197.873ZM179.416 77.9355C175.607 77.9355 173.117 82.6719 173.166 89.8008C173.117 96.8809 175.607 101.666 179.416 101.666C183.273 101.666 185.764 96.8809 185.764 89.8008C185.764 82.6719 183.273 77.9355 179.416 77.9355ZM245.504 74.2734C254.635 74.2734 261.129 78.668 261.129 85.3574C261.129 91.7051 255.367 95.8799 247.066 96.3438V105.963H265.377V108.6H225.924V105.963H243.99V96.3438C235.714 95.9043 229.928 91.7051 229.928 85.3574C229.928 78.668 236.422 74.2734 245.504 74.2734ZM245.504 76.8125C238.229 76.8125 232.857 80.2793 232.857 85.3574C232.857 90.4355 238.229 93.9023 245.504 93.9023C252.779 93.9023 258.199 90.4355 258.199 85.3574C258.199 80.2793 252.779 76.8125 245.504 76.8125ZM305.037 71.2461V102.887H301.961V71.2461H305.037ZM306.453 110.699V113.287H277.547V100.006H280.623V110.699H306.453ZM284.48 78.0332C284.432 84.918 289.412 90.9238 295.613 93.2676L293.953 95.7578C288.973 93.7314 284.847 89.6299 282.967 84.332C281.136 89.9473 277.01 94.415 272.029 96.5391L270.271 94.0977C276.521 91.5586 281.355 85.1621 281.404 78.0332V73.6387H284.48V78.0332ZM361.408 71.2461V93.5117H358.332V84.5762H348.176V82.0371H358.332V71.2461H361.408ZM347.883 73.4922C347.883 84.0391 340.07 91.2168 327.766 94.3418L326.643 91.8027C337.165 89.1172 343.903 83.624 344.66 76.1289H328.84V73.4922H347.883ZM361.408 95.4648V105.523H336.896V111.334H363.068V113.873H333.869V103.082H358.332V98.0039H333.723V95.4648H361.408ZM415.533 71.2461V86.627H422.271V89.2637H415.533V104.938H412.457V71.2461H415.533ZM417.145 110.699V113.287H388.678V102.643H391.754V110.699H417.145ZM382.037 97.0762C385.602 97.1006 389.776 97.0762 394.146 96.8809V93.3652C388.995 92.9746 385.699 90.5576 385.699 86.8223C385.699 82.6719 389.654 80.1816 395.66 80.2305C401.666 80.1816 405.572 82.6719 405.621 86.8223C405.572 90.5576 402.325 92.9502 397.223 93.3652V96.7344C401.422 96.5391 405.67 96.1484 409.576 95.5137L409.82 97.8086C400.543 99.5176 390.045 99.6641 382.477 99.7129L382.037 97.0762ZM408.209 75.7383V78.1309H383.16V75.7383H394.146V71.0996H397.223V75.7383H408.209ZM395.66 82.4766C391.363 82.4766 388.629 84.1855 388.629 86.8223C388.629 89.4102 391.363 91.1191 395.66 91.1191C399.908 91.1191 402.643 89.4102 402.691 86.8223C402.643 84.1855 399.908 82.4766 395.66 82.4766ZM437.713 73.9316C441.399 73.9072 444.524 75.2988 446.502 77.6426H458.318V71.2461H461.395V96.832H458.318V90.3379H446.551C444.573 92.7061 441.424 94.1221 437.713 94.0977C431.268 94.1465 426.58 89.9961 426.629 84.0391C426.58 78.0332 431.268 73.8828 437.713 73.9316ZM437.713 76.5684C432.977 76.5684 429.559 79.7422 429.559 84.0391C429.559 88.2871 432.977 91.4609 437.713 91.4121C442.303 91.4609 445.77 88.2871 445.77 84.0391C445.77 79.7422 442.303 76.5684 437.713 76.5684ZM447.234 97.8574C456.121 97.9062 461.541 100.885 461.541 106.012C461.541 111.188 456.121 114.166 447.234 114.166C438.348 114.166 432.928 111.188 432.977 106.012C432.928 100.885 438.348 97.9062 447.234 97.8574ZM447.234 100.348C440.35 100.348 435.955 102.545 435.955 106.012C435.955 109.479 440.35 111.676 447.234 111.676C454.119 111.676 458.562 109.479 458.562 106.012C458.562 102.545 454.119 100.348 447.234 100.348ZM448.016 80.2305C448.479 81.3779 448.748 82.6719 448.748 84.0391C448.748 85.3818 448.504 86.627 448.064 87.75H458.318V80.2305H448.016ZM503.154 71.2461V82.4766H509.795V85.1133H503.154V96.1973H500.078V71.2461H503.154ZM479.229 98.1504V103.18H500.078V98.1504H503.154V113.678H476.201V98.1504H479.229ZM479.229 111.139H500.078V105.67H479.229V111.139ZM495.439 75.9336V78.4727H469.756V75.9336H481.084V70.8066H484.111V75.9336H495.439ZM482.598 80.7676C488.75 80.7676 492.852 83.6973 492.852 88.2871C492.852 92.877 488.75 95.8555 482.598 95.8066C476.348 95.8555 472.295 92.877 472.295 88.2871C472.295 83.6973 476.348 80.7676 482.598 80.7676ZM482.598 83.209C478.154 83.1602 475.176 85.2598 475.225 88.2871C475.176 91.3145 478.154 93.4141 482.598 93.4141C486.992 93.4141 489.922 91.3145 489.971 88.2871C489.922 85.2598 486.992 83.1602 482.598 83.209ZM548.576 71.2461V114.312H545.549V71.2461H548.576ZM519.279 75.4941V100.299H519.67C526.408 100.299 533.195 99.7617 540.617 98.1992L541.057 100.885C533.391 102.496 526.652 103.033 519.67 103.033H516.252V75.4941H519.279ZM590.189 71.2461V88.6289H597.611V91.2168H590.189V114.361H587.113V71.2461H590.189ZM562.309 100.787C570.512 100.787 576.078 100.494 582.621 99.2734L583.061 101.959C576.273 103.18 570.658 103.473 562.309 103.473H558.988V75.4941H579.057V78.082H562.064V100.787H562.309Z" fill="#00AEFF"/>
</svg>
