<svg width="167" height="261" viewBox="0 0 167 261" fill="none" xmlns="http://www.w3.org/2000/svg">
<path d="M21.8018 23.1465C21.7204 22.2839 21.46 21.5433 21.0205 20.9248C20.5811 20.3063 19.9626 19.8424 19.165 19.5332C18.3675 19.2077 17.3991 19.0449 16.2598 19.0449C15.1693 19.0449 14.2415 19.1914 13.4766 19.4844C12.7116 19.7773 12.1338 20.1842 11.7432 20.7051C11.3525 21.2259 11.1572 21.8281 11.1572 22.5117C11.1247 23.5371 11.556 24.359 12.4512 24.9775C13.3464 25.5798 14.6647 26.0843 16.4062 26.4912L19.4824 27.1748C23.0306 27.9561 25.708 29.2174 27.5146 30.959C29.3213 32.6842 30.2409 34.9466 30.2734 37.7461C30.2734 39.9596 29.7119 41.8721 28.5889 43.4834C27.4658 45.0785 25.8626 46.3073 23.7793 47.1699C21.696 48.0163 19.1976 48.4395 16.2842 48.4395C13.3057 48.4395 10.7259 47.9919 8.54492 47.0967C6.36393 46.2015 4.67936 44.8587 3.49121 43.0684C2.30306 41.2617 1.67643 39.0238 1.61133 36.3545H9.61914C9.70052 37.4775 10.0179 38.4297 10.5713 39.2109C11.1247 39.9759 11.8815 40.5537 12.8418 40.9443C13.8021 41.335 14.9089 41.5303 16.1621 41.5303C17.334 41.5303 18.3431 41.3675 19.1895 41.042C20.0358 40.7165 20.6787 40.2689 21.1182 39.6992C21.5739 39.1296 21.8018 38.4704 21.8018 37.7217C21.8018 37.0544 21.5983 36.4766 21.1914 35.9883C20.7845 35.5 20.166 35.0768 19.3359 34.7188C18.5059 34.3607 17.4154 34.027 16.0645 33.7178L12.3535 32.8389C9.17969 32.1227 6.75456 30.9671 5.07812 29.3721C3.40169 27.777 2.56348 25.6774 2.56348 23.0732C2.56348 20.9248 3.14941 19.0286 4.32129 17.3848C5.49316 15.7409 7.12077 14.4632 9.2041 13.5518C11.2874 12.624 13.6556 12.1602 16.3086 12.1602C18.9941 12.1602 21.346 12.6159 23.3643 13.5273C25.3988 14.4388 26.9694 15.7246 28.0762 17.3848C29.1992 19.0449 29.7689 20.9655 29.7852 23.1465H21.8018ZM34.5459 21.4863H42.7734V48H34.5459V21.4863ZM38.6475 18.3125C37.8825 18.3125 37.1745 18.1335 36.5234 17.7754C35.8724 17.4173 35.3434 16.9372 34.9365 16.335C34.5459 15.7165 34.3506 15.0573 34.3506 14.3574C34.3506 13.625 34.5459 12.9577 34.9365 12.3555C35.3434 11.7533 35.8724 11.2731 36.5234 10.915C37.1745 10.557 37.8825 10.3779 38.6475 10.3779C39.4287 10.3779 40.1449 10.557 40.7959 10.915C41.4469 11.2731 41.9596 11.7533 42.334 12.3555C42.7246 12.9577 42.9199 13.625 42.9199 14.3574C42.9199 15.0573 42.7246 15.7165 42.334 16.335C41.9596 16.9372 41.4469 17.4173 40.7959 17.7754C40.1449 18.1335 39.4287 18.3125 38.6475 18.3125ZM60.3271 58.498C57.8695 58.498 55.7129 58.14 53.8574 57.4238C52.002 56.7077 50.5534 55.7067 49.5117 54.4209C48.4863 53.1514 47.9085 51.6702 47.7783 49.9775H55.7861C55.9814 50.9215 56.486 51.6133 57.2998 52.0527C58.1136 52.5085 59.196 52.7363 60.5469 52.7363C62.1257 52.7363 63.3626 52.3701 64.2578 51.6377C65.153 50.9053 65.6006 49.7171 65.6006 48.0732V43.3857H65.2832C64.9251 44.2321 64.4124 44.9727 63.7451 45.6074C63.0778 46.2259 62.2314 46.7223 61.2061 47.0967C60.1969 47.471 59.0495 47.6582 57.7637 47.6582C55.7617 47.6582 53.9551 47.1862 52.3438 46.2422C50.7487 45.2819 49.4792 43.8333 48.5352 41.8965C47.6074 39.9596 47.1436 37.5426 47.1436 34.6455C47.1436 31.667 47.6237 29.1686 48.584 27.1504C49.5443 25.1159 50.8219 23.6104 52.417 22.6338C54.012 21.641 55.7861 21.1445 57.7393 21.1445C59.0739 21.1445 60.2376 21.3724 61.2305 21.8281C62.2396 22.2839 63.0534 22.8617 63.6719 23.5615C64.2904 24.2451 64.8112 25.0671 65.2344 26.0273H65.5029V21.4863H73.7061V48.1465C73.7061 50.3275 73.1445 52.1992 72.0215 53.7617C70.9147 55.3242 69.3522 56.5042 67.334 57.3018C65.332 58.0993 62.9964 58.498 60.3271 58.498ZM60.5469 41.6035C61.6048 41.6035 62.5081 41.3268 63.2568 40.7734C64.0218 40.2201 64.6077 39.4225 65.0146 38.3809C65.4215 37.3392 65.625 36.1022 65.625 34.6699C65.625 33.2214 65.4215 31.9681 65.0146 30.9102C64.6077 29.8359 64.0299 29.014 63.2812 28.4443C62.5326 27.8747 61.6211 27.5898 60.5469 27.5898C59.4889 27.5898 58.5856 27.8828 57.8369 28.4688C57.0882 29.0384 56.5186 29.8604 56.1279 30.9346C55.7373 31.9925 55.542 33.2376 55.542 34.6699C55.542 36.1022 55.7373 37.3392 56.1279 38.3809C56.5186 39.4062 57.0882 40.2038 57.8369 40.7734C58.5856 41.3268 59.4889 41.6035 60.5469 41.6035ZM87.207 48H78.9795V21.4863H86.792V26.2959H87.0605C87.679 24.7008 88.6882 23.4476 90.0879 22.5361C91.4876 21.6084 93.1641 21.1445 95.1172 21.1445C96.9727 21.1445 98.5921 21.5596 99.9756 22.3896C101.359 23.2035 102.425 24.359 103.174 25.8564C103.939 27.3538 104.321 29.0954 104.321 31.0811V48H96.0938V32.668C96.0938 31.6589 95.9229 30.8044 95.5811 30.1045C95.2555 29.4046 94.7673 28.8594 94.1162 28.4688C93.4652 28.0781 92.6758 27.8828 91.748 27.8828C90.8366 27.8828 90.0391 28.0863 89.3555 28.4932C88.6719 28.8838 88.1429 29.4453 87.7686 30.1777C87.3942 30.9102 87.207 31.7891 87.207 32.8145V48ZM120.776 21.4863H129.004V48H120.776V21.4863ZM124.878 18.3125C124.113 18.3125 123.405 18.1335 122.754 17.7754C122.103 17.4173 121.574 16.9372 121.167 16.335C120.776 15.7165 120.581 15.0573 120.581 14.3574C120.581 13.625 120.776 12.9577 121.167 12.3555C121.574 11.7533 122.103 11.2731 122.754 10.915C123.405 10.557 124.113 10.3779 124.878 10.3779C125.659 10.3779 126.375 10.557 127.026 10.915C127.677 11.2731 128.19 11.7533 128.564 12.3555C128.955 12.9577 129.15 13.625 129.15 14.3574C129.15 15.0573 128.955 15.7165 128.564 16.335C128.19 16.9372 127.677 17.4173 127.026 17.7754C126.375 18.1335 125.659 18.3125 124.878 18.3125ZM142.529 48H134.302V21.4863H142.114V26.2959H142.383C143.001 24.7008 144.01 23.4476 145.41 22.5361C146.81 21.6084 148.486 21.1445 150.439 21.1445C152.295 21.1445 153.914 21.5596 155.298 22.3896C156.681 23.2035 157.747 24.359 158.496 25.8564C159.261 27.3538 159.644 29.0954 159.644 31.0811V48H151.416V32.668C151.416 31.6589 151.245 30.8044 150.903 30.1045C150.578 29.4046 150.09 28.8594 149.438 28.4688C148.787 28.0781 147.998 27.8828 147.07 27.8828C146.159 27.8828 145.361 28.0863 144.678 28.4932C143.994 28.8838 143.465 29.4453 143.091 30.1777C142.716 30.9102 142.529 31.7891 142.529 32.8145V48Z" fill="black"/>
<path d="M13.999 82.4404V84.4229H9.89746V101H7.57324V84.4229H4.70215V82.4404H7.57324V79.7744C7.57324 76.8691 9.38477 75.0918 12.4268 75.0918C13.042 75.0918 13.8281 75.1943 14.3408 75.2969V77.3818C13.7939 77.2793 13.2812 77.2793 12.9053 77.2793C10.8545 77.2793 9.89746 78.2363 9.89746 80.2529V82.4404H13.999ZM24.1504 101.376C19.2969 101.376 15.9131 97.4795 15.9131 91.8057C15.9131 86.0977 19.2969 82.167 24.1504 82.167C29.0039 82.167 32.3535 86.0977 32.3535 91.8057C32.3535 97.4795 29.0039 101.376 24.1504 101.376ZM24.1504 99.291C27.9443 99.291 30.0293 95.873 30.0293 91.8057C30.0293 87.7383 27.9443 84.2861 24.1504 84.2861C20.3223 84.2861 18.2373 87.7383 18.2373 91.8057C18.2373 95.873 20.3223 99.291 24.1504 99.291ZM36.4209 101V82.4404H38.6768V85.3115H38.8477C39.5996 83.4316 41.582 82.167 43.8721 82.167C44.248 82.167 44.7949 82.167 45.0684 82.2012V84.5596C44.8633 84.5254 44.3164 84.4229 43.7012 84.4229C40.8643 84.4229 38.7793 86.3711 38.7793 89.0713V101H36.4209ZM63.7305 108.349C59.6289 108.349 56.6553 106.605 56.2109 103.324H58.6719C59.1162 105.307 61.0645 106.298 63.7305 106.298C67.1143 106.298 69.165 104.726 69.165 101.342V97.2402H68.96C68.2422 98.8467 66.6699 100.795 63.2861 100.795C58.8428 100.795 55.6299 97.2744 55.6299 91.5664C55.6299 85.8926 58.7402 82.167 63.3203 82.167C66.7725 82.167 68.2422 84.3203 68.9941 85.8926H69.1992V82.4404H71.4893V101.479C71.4893 106.195 68.208 108.349 63.7305 108.349ZM63.5938 98.71C67.1143 98.71 69.1992 96.0439 69.1992 91.6348C69.1992 87.3623 67.1826 84.2861 63.5938 84.2861C59.9365 84.2861 57.9883 87.5332 57.9883 91.6348C57.9883 95.8047 59.9707 98.71 63.5938 98.71ZM83.8281 101.376C78.9746 101.376 75.5908 97.4795 75.5908 91.8057C75.5908 86.0977 78.9746 82.167 83.8281 82.167C88.6816 82.167 92.0312 86.0977 92.0312 91.8057C92.0312 97.4795 88.6816 101.376 83.8281 101.376ZM83.8281 99.291C87.6221 99.291 89.707 95.873 89.707 91.8057C89.707 87.7383 87.6221 84.2861 83.8281 84.2861C80 84.2861 77.915 87.7383 77.915 91.8057C77.915 95.873 80 99.291 83.8281 99.291ZM106.899 76.2539V101H104.541V76.2539H106.899ZM111.411 95.8047C111.411 92.0449 114.453 90.6094 118.247 90.3018C119.478 90.2163 122.485 90.0454 123.374 89.9941V88.251C123.374 85.7559 121.768 84.252 118.862 84.252C116.436 84.252 114.795 85.3799 114.351 87.0547H111.924C112.3 84.1152 115.137 82.167 118.999 82.167C121.768 82.167 125.698 83.3633 125.698 88.4561V101H123.374V98.1289H123.237C122.485 99.7354 120.64 101.41 117.529 101.41C114.146 101.41 111.411 99.3936 111.411 95.8047ZM113.735 95.9072C113.735 98.0947 115.479 99.3252 117.871 99.3252C121.289 99.3252 123.374 96.8643 123.374 93.9248V91.9424L118.589 92.2842C115.308 92.5234 113.735 93.7881 113.735 95.9072ZM131.167 101V76.2539H133.491V85.8926H133.696C134.414 84.3203 135.884 82.167 139.302 82.167C143.882 82.167 147.026 85.9951 147.026 91.7715C147.026 97.5479 143.916 101.376 139.336 101.376C135.952 101.376 134.448 99.2568 133.696 97.6504H133.423V101H131.167ZM133.457 91.7373C133.457 96.1465 135.508 99.291 139.028 99.291C142.686 99.291 144.668 95.9756 144.668 91.7373C144.668 87.5332 142.72 84.2861 139.028 84.2861C135.474 84.2861 133.457 87.3623 133.457 91.7373Z" fill="black"/>
<path d="M91.7856 191.584H60.3335V186.417H91.7856L77.3189 171.951L81.0002 168.334L101.667 189.001L81.0002 209.667L77.3189 206.051L91.7856 191.584Z" fill="#1D1B20"/>
</svg>
