<svg width="126" height="50" viewBox="0 0 126 50" fill="none" xmlns="http://www.w3.org/2000/svg">
<path d="M54.249 48.9347C53.9837 49.09 53.5894 49.2803 53.0918 49.3969C51.3008 49.8086 49.7972 48.8492 49.3513 48.5657C48.9091 48.2821 47.962 47.5985 47.0554 46.006C46.0641 44.2698 46.1231 43.2133 46.0051 34.4351C45.9867 33.1378 45.9683 31.623 46.9006 30.9083C47.4461 30.4927 48.2974 30.3645 49.0012 30.6558C49.5724 30.8927 49.9594 31.3627 50.269 31.9454C51.0613 33.433 50.9323 34.8662 50.8807 39.1349C50.8549 41.2751 50.8697 42.3122 51.5588 43.19C51.9752 43.7182 52.8007 44.4057 52.8928 44.4795C53.9358 45.3379 54.2969 45.3146 54.6433 45.9555C54.7613 46.1691 55.163 46.9887 54.9271 47.9131C54.8681 48.1501 54.7797 48.3404 54.7097 48.4647" fill="#10C7F9"/>
<path d="M69.2236 45.2042C68.9736 45.2042 68.7352 45.2504 68.5122 45.3274C68.6545 44.8308 68.7352 44.3072 68.7352 43.7644C68.7352 40.6346 66.2013 38.0977 63.0751 38.0977C59.949 38.0977 57.415 40.6346 57.415 43.7644C57.415 46.8942 59.949 49.4311 63.0751 49.4311C64.6555 49.4311 66.0859 48.7805 67.1126 47.7334C67.2933 48.7382 68.1662 49.5004 69.2197 49.5004C70.404 49.5004 71.3653 48.538 71.3653 47.3523C71.3653 46.1666 70.404 45.2042 69.2197 45.2042H69.2236ZM66.4358 44.6036C66.3935 45.2696 66.0167 45.7893 65.9475 45.874C65.1092 46.9365 63.2405 46.9789 63.0598 46.9789V46.9673C62.4984 46.9596 61.0872 46.848 60.3489 45.9972C60.2759 45.9125 59.8721 45.4121 59.7991 44.7499C59.776 44.5382 59.799 44.388 59.9029 44.2802C60.0605 44.1147 60.3566 44.0724 60.5642 44.1763C60.8449 44.311 60.7373 44.6075 61.0603 45.0463C61.3025 45.3736 61.6024 45.5391 61.7332 45.6084C62.0446 45.7739 62.3176 45.8201 62.4522 45.8432C62.7137 45.8856 62.9329 45.8779 63.1059 45.8586C63.1059 45.8586 63.1059 45.8586 63.1097 45.8586C63.1367 45.8586 63.1674 45.8548 63.1905 45.8509V45.8663C63.3635 45.8779 63.5827 45.874 63.8403 45.8201C63.9749 45.7932 64.2441 45.7316 64.5478 45.5506C64.6747 45.4736 64.967 45.2966 65.19 44.9578C65.4938 44.5035 65.3707 44.211 65.6437 44.0647C65.8475 43.953 66.1436 43.98 66.3089 44.1378C66.4204 44.2418 66.4474 44.3919 66.432 44.6036H66.4358Z" fill="#10C7F9"/>
<path d="M59.6686 38.7339C60.057 38.5337 59.8955 38.1179 60.3377 37.4904C60.6684 37.0207 61.0837 36.7821 61.2644 36.6781C61.695 36.4356 62.0796 36.3586 62.268 36.324C62.6333 36.2547 62.9447 36.2585 63.1831 36.2778V36.297C63.2177 36.2932 63.26 36.2893 63.2985 36.2855C63.2985 36.2855 63.3023 36.2855 63.3062 36.2855C63.5446 36.2662 63.8599 36.2624 64.2213 36.3278C64.4136 36.3625 64.7942 36.4394 65.2249 36.682C65.4056 36.7821 65.8209 37.0246 66.1516 37.4943C66.5938 38.1218 66.4323 38.5375 66.8207 38.7377C67.109 38.8878 67.5282 38.8378 67.755 38.6145C67.9088 38.4644 67.9396 38.2565 67.9165 37.9562C67.8358 37.0208 67.2859 36.3047 67.186 36.1815C66.1747 34.9612 64.1906 34.761 63.4023 34.7263V34.7109C63.1447 34.7109 60.5184 34.7032 59.3033 36.17C59.2034 36.2893 58.6535 37.0092 58.5728 37.9447C58.5458 38.2449 58.5804 38.4528 58.7343 38.603C58.965 38.8262 59.3802 38.8763 59.6686 38.7262V38.7339Z" fill="#10C7F9"/>
<path d="M85.339 36.6091C84.2662 36.1086 82.9896 36.5706 82.4898 37.6446C82.3167 38.0142 82.2629 38.4107 82.3052 38.788C81.9745 38.53 81.613 38.2991 81.2132 38.1143C79.9212 37.5099 78.5215 37.4406 77.2526 37.8102C77.3103 34.2761 77.3641 32.9557 76.5989 31.5929C76.2759 31.0155 75.8722 30.5458 75.2762 30.3148C74.5418 30.0299 73.6574 30.1531 73.0845 30.5651C72.1078 31.2734 72.1309 32.7748 72.1501 34.0606C72.2693 42.7608 72.2116 43.8041 73.2459 45.5288C74.1919 47.1071 75.1801 47.7847 75.6415 48.0657C76.1029 48.3467 77.6717 49.2976 79.5443 48.8895C79.5943 48.878 79.6405 48.8626 79.6905 48.851C81.49 48.57 83.1204 47.4267 83.9509 45.6481C84.7315 43.9773 84.62 42.1256 83.824 40.6127C84.8276 40.913 85.9273 40.4433 86.3811 39.4655C86.8809 38.3915 86.4195 37.1134 85.3467 36.6129L85.339 36.6091ZM82.0476 43.8734C82.0053 44.5394 81.6284 45.0591 81.5592 45.1438C80.721 46.2063 78.8522 46.2487 78.6715 46.2487V46.2371C78.1101 46.2294 76.6989 46.1178 75.9607 45.267C75.8876 45.1823 75.4838 44.6818 75.4108 44.0197C75.3877 43.808 75.4108 43.6578 75.5146 43.55C75.6723 43.3845 75.9683 43.3421 76.176 43.4461C76.4528 43.5808 76.349 43.8773 76.672 44.3161C76.9142 44.6433 77.2142 44.8089 77.3449 44.8782C77.6564 45.0437 77.9294 45.0899 78.064 45.113C78.3254 45.1553 78.5446 45.1476 78.7176 45.1284C78.7176 45.1284 78.7176 45.1284 78.7215 45.1284C78.7484 45.1284 78.7792 45.1246 78.8022 45.1207V45.1361C78.9753 45.1476 79.1944 45.1438 79.4521 45.0899C79.5866 45.063 79.8558 45.0014 80.1596 44.8204C80.2865 44.7434 80.5787 44.5663 80.8017 44.2276C81.1055 43.7733 80.9824 43.4807 81.2555 43.3344C81.4592 43.2228 81.7553 43.2498 81.9207 43.4076C82.0322 43.5115 82.0591 43.6617 82.0437 43.8734H82.0476Z" fill="#10C7F9"/>
<path d="M91.7608 44.5319C90.688 44.0314 89.4114 44.4934 88.9115 45.5675C88.4117 46.6415 88.8731 47.9196 89.9459 48.4201C91.0187 48.9205 92.2953 48.4586 92.7952 47.3845C93.295 46.3105 92.8336 45.0324 91.7608 44.5319Z" fill="#10C7F9"/>
<path d="M34.8764 40.705C34.8119 40.4138 34.6484 39.6858 34.1749 39.1226C33.7932 38.6666 33.3991 38.5402 33.2033 38.498C27.1803 38.5134 21.1572 38.5325 15.1342 38.5479C10.69 38.5364 6.24581 38.5249 1.79916 38.5095C1.60335 38.5517 1.20925 38.6781 0.827541 39.1341C0.354124 39.6973 0.190534 40.4253 0.12609 40.7165C-0.149037 41.9886 0.0319041 43.5519 0.611902 44.4676C1.22412 45.437 2.14865 45.4639 2.55266 45.4677C8.64016 45.5213 16.0636 45.4907 19.0157 45.4753C22.632 45.4868 27.909 45.4945 32.4473 45.4562C32.8514 45.4562 33.7759 45.4255 34.3881 44.4561C34.9681 43.5404 35.149 41.9771 34.8739 40.705H34.8764Z" fill="#10C7F9"/>
<path d="M76.7107 41.5456C76.4624 41.428 76.1652 41.5358 76.0476 41.7874C75.93 42.0356 76.0378 42.3329 76.2893 42.4505C76.5376 42.5681 76.8348 42.4603 76.9524 42.2087C77.07 41.9605 76.9622 41.6632 76.7107 41.5456Z" fill="#10C7F9"/>
<path d="M125.891 40.705C125.833 40.4138 125.689 39.6858 125.269 39.1226C124.931 38.6666 124.582 38.5402 124.409 38.498C119.074 38.5134 113.739 38.5325 108.405 38.5479C104.468 38.5364 100.532 38.5249 96.5935 38.5095C96.4201 38.5517 96.0711 38.6781 95.733 39.1341C95.3137 39.6973 95.1688 40.4253 95.1117 40.7165C94.868 41.9886 95.0283 43.5519 95.542 44.4676C96.0842 45.437 96.9031 45.4639 97.2609 45.4677C102.653 45.5213 109.228 45.4907 111.842 45.4753C115.045 45.4868 119.719 45.4945 123.739 45.4562C124.097 45.4562 124.916 45.4255 125.458 44.4561C125.972 43.5404 126.132 41.9771 125.888 40.705H125.891Z" fill="#10C7F9"/>
<path d="M63.5508 6.81253C63.4107 5.97706 63.1056 5.15074 62.6065 4.36711C60.3338 0.787416 55.0738 -0.54811 50.8586 1.382C46.6435 3.31211 45.0709 7.77911 47.3436 11.3588C49.1676 14.2311 52.916 15.655 56.5064 15.1093C56.4812 16.1002 56.4453 17.0516 56.4417 17.9754C56.4346 18.0364 56.4274 18.0944 56.4238 18.1432C56.3771 19.5732 56.3305 21.0032 56.2874 22.4333C56.2658 22.5004 56.0396 23.1895 55.1528 23.4426C55.0989 23.4578 55.0451 23.4639 54.9948 23.4761C54.9948 23.467 54.9948 23.4609 54.9948 23.4548C54.8081 23.4883 54.3808 23.5401 53.9105 23.406C53.0237 23.1529 52.7975 22.4638 52.7759 22.3967C52.7293 20.9667 52.6826 19.5366 52.6395 18.1066C52.6323 17.8779 52.5677 17.5089 52.2481 17.1583C51.5193 16.3685 50.0795 16.3442 49.5517 16.335C49.0706 16.3259 47.5447 16.3015 46.8051 17.0759C46.543 17.3504 46.4604 17.637 46.4353 17.8321C46.3814 18.1797 46.2988 18.7133 46.2162 19.3628C46.1229 20.0946 46.0403 20.8935 46.0188 21.2106C45.9793 21.8082 45.8069 24.4701 48.1551 26.4826C48.6003 26.8637 49.3686 27.4217 50.6109 27.9065C50.9197 28.0224 51.2895 28.1413 51.7239 28.2389C52.5174 28.4188 53.2283 28.4584 53.7597 28.4584L54.1223 28.4401L55.3072 28.498C55.835 28.498 56.5459 28.4584 57.3429 28.2785C57.7738 28.1809 58.1472 28.062 58.456 27.9462C59.6983 27.4644 60.4702 26.9033 60.9118 26.5222C61.6981 25.8483 62.1972 25.1013 62.5203 24.3817C63.4072 23.3999 63.4897 21.8387 63.5615 20.4696C64.0355 11.3497 64.2473 8.7091 63.5615 6.81253H63.5508ZM60.7682 8.29441C60.6713 9.24879 60.0106 9.98364 59.8886 10.1056C58.4237 11.6058 55.2605 11.5997 54.9517 11.5966V11.5814C54.0039 11.5509 51.6126 11.3436 50.3955 10.0965C50.2734 9.97449 49.6128 9.23965 49.5158 8.28526C49.4835 7.98035 49.523 7.76691 49.7097 7.61445C49.9862 7.38577 50.4888 7.33393 50.8371 7.48639C51.3039 7.69068 51.11 8.11451 51.6449 8.75788C52.0435 9.2366 52.5426 9.48358 52.758 9.58725C53.2786 9.83728 53.7382 9.91351 53.9679 9.9501C54.406 10.0202 54.783 10.0172 55.0702 9.99583H55.0774C55.1241 9.99279 55.1743 9.98974 55.2174 9.98669V10.008C55.5082 10.0294 55.8852 10.0324 56.3197 9.96229C56.5495 9.9257 57.009 9.84948 57.5296 9.59945C57.7451 9.49578 58.2477 9.24879 58.6427 8.77008C59.1776 8.12671 58.9838 7.70592 59.4505 7.49858C59.7988 7.34613 60.3014 7.39491 60.5779 7.62665C60.761 7.77911 60.8005 7.99255 60.7718 8.29746L60.7682 8.29441Z" fill="#10C7F9"/>
<path d="M83.92 4.96305C81.5612 0.833115 76.1041 -0.709677 71.7277 1.51805C67.3548 3.74577 65.7212 8.89971 68.08 13.033C70.4388 17.163 75.8959 18.7058 80.2723 16.478C84.6452 14.2503 86.2788 9.09638 83.92 4.96305ZM82.01 9.49649C81.9095 10.5985 81.2238 11.4462 81.0981 11.5886C79.5794 13.3179 76.2944 13.3145 75.9749 13.3111V13.2941C74.9911 13.2568 72.5103 13.0195 71.2466 11.5784C71.1209 11.436 70.4352 10.5883 70.3347 9.48631C70.3023 9.13368 70.3454 8.88615 70.5357 8.70983C70.8229 8.44535 71.3435 8.38771 71.7061 8.56403C72.1908 8.80138 71.9897 9.28965 72.5426 10.0288C72.9555 10.5815 73.4761 10.8664 73.6987 10.985C74.2372 11.2732 74.7147 11.3614 74.9552 11.4021C75.4112 11.4835 75.8025 11.4801 76.1005 11.4563H76.1077C76.158 11.4529 76.2082 11.4496 76.2513 11.4428V11.4665C76.5529 11.4903 76.9442 11.4936 77.3966 11.4123C77.6336 11.3716 78.111 11.2834 78.6532 10.9952C78.8758 10.8765 79.3963 10.5917 79.8092 10.039C80.3621 9.29643 80.1611 8.80816 80.6457 8.5742C81.0083 8.39788 81.5289 8.45553 81.8161 8.72C82.0064 8.89632 82.0495 9.14385 82.0172 9.49649H82.01Z" fill="#10C7F9"/>
</svg>
